<svg version="1.1" viewBox="0 0 226.8 87.9" xmlns="http://www.w3.org/2000/svg" xmlns:xlink="http://www.w3.org/1999/xlink" id="Layer_1" overflow="hidden"><g><g><defs><rect x="0" y="0" width="226.8" height="87.9" id="SVGID_1_"/></defs><clipPath id="SVGID_2_"><use width="100%" height="100%" xlink:href="#SVGID_1_" overflow="visible"/></clipPath><g clip-path="url(#SVGID_2_)"><g><path d=" M 119.6 55.3 L 119.6 53.5 C 118.7 54.5 117.3 55.7 114.8 55.7 C 111.9 55.7 109.6 53.9 109.6 50.8 C 109.6 47 113.1 45.6 116.6 45.3 L 117.9 45.2 C 119.2 45.1 119.7 44.4 119.7 43.5 C 119.7 42.4 118.7 41.6 117.1 41.6 C 115.3 41.6 113.6 42.9 112.9 43.9 L 110.9 41.5 C 112.2 39.9 114.4 38.7 117.3 38.7 C 121 38.7 123.2 40.6 123.2 43.9 L 123.2 55.5 L 119.6 55.5 L 119.6 55.3 Z M 119.6 47.5 L 117.1 47.8 C 115 48.1 113.1 48.8 113.1 50.6 C 113.1 51.9 114.2 52.8 115.6 52.8 C 117.3 52.8 118.7 51.7 119.6 50.6 L 119.6 47.5 L 119.6 47.5 Z"/><path d=" M 130.1 55.3 L 126.5 55.3 L 126.5 39 L 130.1 39 L 130.1 40.8 C 131.4 39.6 133.3 38.6 135.4 38.6 C 137.3 38.6 140 39.7 140 43.7 L 140 55.3 L 136.4 55.3 L 136.4 44.6 C 136.4 43 135.7 41.6 134.1 41.6 C 132.7 41.6 131 42.8 130.1 43.5 L 130.1 55.3 Z"/><path d=" M 152.7 39 L 156.3 39 L 156.3 55.3 L 152.6 55.3 L 152.6 53.5 C 151.6 54.4 150 55.6 147.9 55.6 C 145.8 55.6 142.9 54.5 142.9 50.4 L 142.9 39 L 146.5 39 L 146.5 49.3 C 146.5 51.2 147.3 52.5 149 52.5 C 150.4 52.5 151.7 51.6 152.7 50.5 L 152.7 39 L 152.7 39 Z"/><path d=" M 163.8 55.3 L 160.2 55.3 L 160.2 33.8 L 163.8 30.2 L 163.8 55.3 Z"/><path d=" M 169.7 31.6 C 170.9 31.6 172 32.6 172 33.9 C 172 35.2 170.9 36.2 169.7 36.2 C 168.4 36.2 167.4 35.1 167.4 33.9 C 167.4 32.7 168.4 31.6 169.7 31.6 Z M 171.6 55.3 L 167.9 55.3 L 167.9 39 L 171.6 39 L 171.6 55.3 Z"/><path d=" M 183 42 L 179.6 42 L 179.6 55.4 L 176 55.4 L 176 42 L 173.8 42 L 173.8 39 L 176 39 L 176 35.6 C 176 32.9 177.7 30.5 181.1 30.5 C 182.7 30.5 184 30.9 184.8 31.3 L 183.7 34.1 C 183.2 33.8 182.4 33.5 181.7 33.5 C 180.6 33.5 179.6 34.3 179.6 35.8 L 179.6 39 L 183.9 39 L 183 42 Z"/><path d=" M 187.3 48.1 C 187.3 50.7 189.2 52.6 191.5 52.6 C 193.2 52.6 195 51.5 195.7 50.1 L 198 52.2 C 196.7 54.1 194.1 55.7 191.2 55.7 C 186.5 55.7 183.6 52.2 183.6 47.1 C 183.6 42.2 186.7 38.5 191.3 38.5 C 195.6 38.5 198.7 41.3 198.5 48 L 187.3 48.1 L 187.3 48.1 Z M 194.6 45.4 C 194.6 43.4 193.3 41.5 191.1 41.5 C 189 41.5 187.4 43.5 187.3 45.4 L 194.6 45.4 Z"/><path d=" M 89 55.3 L 85 55.3 L 85 32.6 L 89.2 32.6 L 96 43.8 L 96 43.8 L 102.6 32.6 L 106.8 32.6 L 106.8 55.3 L 102.8 55.3 L 102.8 39.3 L 102.7 39.3 L 95.8 50.7 L 89 39.3 L 89 39.3 L 89 55.3 Z"/></g><g><path d=" M 51 34.1 L 51 59.6 L 56.7 53.9 L 56.7 28.4 Z" fill="#00A758"/><path d=" M 39.7 59.6 L 45.4 53.9 L 45.4 28.4 L 39.7 34.1 Z" fill="#00A758"/><path d=" M 28.3 59.6 L 34 53.9 L 34 28.4 L 28.3 34.1 Z" fill="#00A758"/></g></g></g></g></svg>