<svg xmlns="http://www.w3.org/2000/svg" width="1280" height="720" viewBox="0 0 1280 720" fill="none">
  <rect width="1280" height="720" fill="#F7F9FC"/>
  <g opacity="0.18">
    <circle cx="1020" cy="180" r="120" stroke="#06C7BA" stroke-width="2"/>
    <circle cx="980" cy="210" r="68" stroke="#002060" stroke-width="2"/>
    <circle cx="1120" cy="290" r="94" stroke="#06C7BA" stroke-width="2"/>
    <circle cx="930" cy="335" r="140" stroke="#002060" stroke-width="2"/>
    <circle cx="1090" cy="420" r="56" stroke="#00A758" stroke-width="2"/>
    <path d="M880 220C940 240 980 270 1035 320C1080 360 1130 380 1188 402" stroke="#002060" stroke-width="3" stroke-linecap="round"/>
    <path d="M918 166C980 182 1046 212 1110 256" stroke="#06C7BA" stroke-width="3" stroke-linecap="round"/>
    <path d="M944 354C995 360 1060 388 1144 450" stroke="#00A758" stroke-width="3" stroke-linecap="round"/>
  </g>
  <g opacity="0.12">
    <rect x="844" y="120" width="360" height="430" rx="18" stroke="#002060" stroke-width="2"/>
    <rect x="874" y="154" width="144" height="16" rx="8" fill="#002060"/>
    <rect x="874" y="188" width="266" height="10" rx="5" fill="#06C7BA"/>
    <rect x="874" y="214" width="218" height="10" rx="5" fill="#06C7BA"/>
    <rect x="874" y="272" width="128" height="80" rx="14" stroke="#002060" stroke-width="2"/>
    <rect x="1028" y="272" width="128" height="80" rx="14" stroke="#06C7BA" stroke-width="2"/>
    <rect x="874" y="378" width="282" height="16" rx="8" fill="#002060"/>
    <rect x="874" y="408" width="224" height="10" rx="5" fill="#06C7BA"/>
    <rect x="874" y="432" width="194" height="10" rx="5" fill="#06C7BA"/>
  </g>
</svg>